<?xml version="1.0" encoding="utf-8"?>
<!-- Generator: Adobe Illustrator 24.0.2, SVG Export Plug-In . SVG Version: 6.00 Build 0)  -->
<svg version="1.1" id="Layer_1" xmlns="http://www.w3.org/2000/svg" xmlns:xlink="http://www.w3.org/1999/xlink" x="0px" y="0px"
	 viewBox="0 0 254 256.8" style="enable-background:new 0 0 254 256.8;" xml:space="preserve">
<style type="text/css">
	.st0{fill:#FFDD00;}
	.st1{fill:#FF4438;}
</style>
<g>
	<g>
		<path class="st0" d="M130.6,255c-0.7,0-1.4,0-2,0h-0.3c-0.6,0-1.1,0-1.7,0c-1.6,0-3.2,0-4.8-0.1c-0.3,0-0.6,0-1-0.1
			c-0.2,0-0.5,0-0.7,0c-5.1-0.3-10.2-0.8-15.1-1.7c0,0-0.7-0.1-0.9-0.1c-1.2-0.2-2.4-0.5-3.6-0.8l-0.1,0c-0.7-0.1-1.3-0.3-2-0.5
			c-1-0.2-2.1-0.5-3.1-0.8c-0.9-0.2-1.8-0.5-2.7-0.8c-0.9-0.3-1.8-0.5-2.6-0.8c-1.1-0.4-2.2-0.7-3.3-1.1l-0.7-0.2
			c-0.4-0.2-0.9-0.3-1.3-0.5c-1.9-0.7-3.7-1.4-5.3-2.2c-2.2-1-4.5-2-7.1-3.4c-0.6-0.3-1.2-0.6-1.8-0.9c-2.1-1.1-4.1-2.2-5.9-3.3
			c0,0-0.8-0.4-0.9-0.5c-0.4-0.2-0.8-0.5-1.2-0.8l-0.5-0.3c-1.7-1.1-3.4-2.2-5-3.3c-0.2-0.2-0.5-0.3-0.7-0.5l-0.5-0.3
			c-1.8-1.3-3.7-2.7-5.5-4.1c-0.1-0.1-0.2-0.2-0.3-0.2c-0.1-0.1-0.3-0.2-0.4-0.3c-0.1,0-0.1-0.1-0.1-0.1c-3.7-2.9-7.2-6-10.3-9.1
			c-11.6-11.6-20.8-25.2-27.3-40.4c-2.9-6.9-5.3-14.2-6.9-21.8c0-0.1-0.1-0.1-0.1-0.2c0-0.1-0.1-0.6-0.1-0.6
			c-0.3-1.3-0.5-2.8-0.9-4.6L3.5,150c-0.1-0.4-0.1-0.8-0.2-1.2c-0.3-1.7-0.5-3.4-0.6-4.8c0-0.2-0.1-0.5-0.1-0.7
			c0-0.4-0.1-0.7-0.1-1.1c-0.2-1.8-0.3-3.7-0.4-5.1c0-0.2,0-0.5-0.1-0.7c0-0.3-0.1-0.7-0.1-1c-0.1-2.3-0.2-4.6-0.2-6.8
			c0-17.5,3.3-34.1,9.8-49.3c5.7-13.3,13.5-25.5,23.2-36.1c1.4-1.5,2.7-2.9,4.1-4.3c2.9-2.8,6-5.5,9.1-8c6.2-5,13-9.6,20.2-13.5
			c3.6-2,7.3-3.8,11.1-5.5c4.2-1.9,8.7-3.5,13.4-4.9c11.3-3.4,23.3-5.2,35.6-5.2c1.5,0,2.9,0,4.4,0.1c4.1,0.1,8.3,0.5,12.4,1.1
			c0.4,0.1,0.8,0.1,1.2,0.2c2,0.3,4.2,0.7,6.4,1.1c3.4,0.7,6.6,1.5,9.7,2.4c4.1,1.2,8.2,2.6,12.1,4.1c0.2,0.1,0.4,0.2,0.7,0.3
			l0.5,0.2c2.4,1,4.6,1.9,6.6,2.9c2.5,1.2,5,2.5,7.5,3.8c1.2,0.7,2.4,1.4,3.6,2.1c4.3,2.9,7.1,6.7,8.5,11.3
			c1.2,4.3,0.7,8.6-1.5,12.7l-0.1,0.2c-0.1,0.2-0.2,0.4-0.4,0.7c-2,3.4-4.6,5.9-7.8,7.4c-1.1,0.5-2.2,0.9-3.4,1.2
			c-1.5,0.4-3,0.6-4.4,0.6c-0.3,0-0.6,0-0.9,0c-0.6,0-1.2-0.1-1.7-0.2c-1.7-0.3-3.4-0.8-5-1.6c-0.6-0.3-1.1-0.6-1.6-0.9
			c-1.7-1-3.5-2-5.3-2.9c-4.3-2.2-9.1-4.1-14.1-5.7c-0.3-0.1-0.6-0.2-1-0.3c-0.6-0.2-1.2-0.4-1.8-0.6c-0.3-0.1-0.5-0.1-0.8-0.2
			c-0.2-0.1-0.5-0.1-0.7-0.2c-3.1-0.8-6.3-1.5-9.4-2l-0.3-0.1c-0.5-0.1-0.9-0.1-1.4-0.2c-3.9-0.5-7.9-0.8-11.8-0.8
			c-11,0-21.4,1.8-31,5.4c-1.4,0.5-2.7,1.1-4.1,1.7c-1.3,0.6-2.7,1.2-4,1.9c-2.6,1.3-5.2,2.7-7.6,4.2c-2.5,1.5-4.9,3.1-7.2,4.8
			c-3.5,2.6-6.8,5.4-9.9,8.4c-1.1,1.1-2.2,2.4-3.5,3.8c-0.2,0.2-0.4,0.4-0.5,0.6l-0.3,0.3c-1,1.2-1.9,2.3-2.8,3.4L57,73.7
			c-2.2,3-4.3,6.1-6.1,9.3c-2,3.4-3.7,6.9-5.2,10.4c-4.7,10.8-7.1,22.7-7.1,35.2c0,9.2,1.3,18.1,3.8,26.2c0.3,1,0.7,2.2,1.2,3.5
			l0.2,0.5c0.1,0.2,0.1,0.4,0.2,0.6c0.6,1.5,1.1,3,1.8,4.3c4.7,10.7,11.1,20.3,18.9,28.6c2,1.9,4.1,3.8,6.3,5.6
			c1.2,1,2.4,1.9,3.6,2.8c2.3,1.7,4.7,3.3,7.2,4.8c2.5,1.5,5,2.9,7.6,4.1c1.3,0.6,2.7,1.2,4,1.8c1.1,0.5,2.3,0.9,3.7,1.5
			c0.3,0.1,0.6,0.2,1,0.3l0.3,0.1c0.8,0.3,1.6,0.5,2.4,0.8c0.6,0.2,1.1,0.4,1.7,0.5c0.7,0.2,1.3,0.4,2,0.6l0.5,0.1
			c0.5,0.1,1,0.3,1.5,0.4c0.2,0,0.8,0.2,0.8,0.2c1.9,0.4,3.8,0.8,5.6,1.1l0.6,0.1c1,0.2,2,0.3,3,0.4l0.7,0.1
			c1.1,0.1,2.1,0.2,3.2,0.3c2.8,0.2,5.5,0.3,8,0.3c1.3,0,2.6,0,3.9-0.1c2.5-0.1,5.1-0.3,7.5-0.6c1.2-0.1,2.5-0.3,3.7-0.5
			c4.8-0.8,9.6-1.9,14.1-3.4c6.8-2.3,13.3-5.4,19.2-9.2c2-1.3,4-2.7,5.9-4.1c11.6-8.7,20.6-19.6,26.7-32.4c2.1-4.3,3.8-8.8,5.3-13.5
			c0.7-2.5,0.6-4.4-0.4-5.7c-1-1.3-2.9-1.9-5.8-1.9h-60c-5.3,0-9.7-1.8-13.1-5.2c-3.5-3.5-5.2-7.9-5.2-13.1c0-5.3,1.8-9.7,5.2-13.1
			c3.5-3.5,7.9-5.2,13.1-5.2h64.1c9.2,0,16.9,1.8,22.7,5.3c5.8,3.5,10.2,8,13,13.3c2.8,5.4,4.2,11.3,4.2,17.7
			c0,6.3-0.9,12.5-2.8,18.5c-4.1,13-9.9,25.1-17.3,36c-7.4,11-16.7,20.6-27.7,28.5c-5.2,4-10.8,7.6-16.6,10.7
			c-1.5,0.8-3,1.6-4.4,2.3c-4.5,2.2-9.2,4.2-13.9,5.9c-4.8,1.7-9.8,3.1-14.8,4.1c-1.7,0.3-3.4,0.7-5.1,0.9
			c-3.4,0.5-6.9,0.9-10.4,1.2C136.4,254.9,133.5,255,130.6,255z"/>
		<path class="st1" d="M128.2,2.8c1.4,0,2.9,0,4.3,0.1c4.1,0.1,8.2,0.5,12.3,1.1c0.4,0.1,0.8,0.1,1.2,0.2c2.1,0.3,4.2,0.7,6.3,1.1
			c3.2,0.7,6.4,1.4,9.6,2.4c4.1,1.2,8.1,2.6,12,4.1c0.4,0.2,0.8,0.3,1.1,0.5c2.2,0.9,4.4,1.8,6.5,2.9c2.5,1.2,5,2.4,7.4,3.8
			c1.2,0.7,2.4,1.4,3.6,2.1c4.1,2.7,6.8,6.3,8,10.7c1.2,4.1,0.7,8.1-1.4,11.9c-0.2,0.3-0.3,0.6-0.5,0.8c-1.9,3.2-4.3,5.6-7.4,7
			c-1,0.5-2.1,0.9-3.2,1.1c-1.4,0.4-2.8,0.5-4.2,0.5c-0.3,0-0.5,0-0.8,0c-0.5,0-1.1-0.1-1.6-0.2c-1.6-0.3-3.2-0.8-4.8-1.5
			c-0.5-0.3-1-0.5-1.5-0.9c-1.8-1-3.5-2-5.4-2.9c-4.6-2.3-9.3-4.2-14.2-5.8c-0.9-0.3-1.8-0.6-2.8-0.9c-0.5-0.1-1-0.2-1.5-0.4
			c-3.1-0.8-6.3-1.5-9.5-2c-0.6-0.1-1.2-0.2-1.8-0.3c-3.9-0.5-7.9-0.8-11.9-0.8c-11.1,0-21.6,1.8-31.3,5.5c-1.4,0.5-2.8,1.1-4.1,1.7
			c-1.4,0.6-2.7,1.2-4,1.9c-2.6,1.3-5.2,2.7-7.7,4.2c-2.5,1.5-4.9,3.1-7.2,4.9c-3.5,2.6-6.8,5.4-10,8.5c0,0,0,0,0,0
			c-1.2,1.2-2.4,2.5-3.5,3.8c-0.3,0.3-0.5,0.6-0.8,1c-1,1.1-1.9,2.3-2.8,3.5c-0.2,0.2-0.3,0.4-0.5,0.6c-2.2,3-4.3,6.1-6.2,9.4
			c-1.9,3.3-3.7,6.8-5.3,10.5c-4.8,11-7.2,22.9-7.2,35.6c0,9.4,1.3,18.2,3.8,26.5c0.4,1.2,0.8,2.4,1.2,3.5c0.1,0.4,0.2,0.7,0.4,1.1
			c0.6,1.5,1.1,3,1.8,4.4c0,0,0,0,0,0.1c4.8,10.8,11.1,20.4,19.1,28.8c2,2,4.2,3.9,6.3,5.6c1.2,1,2.4,1.9,3.6,2.8
			c2.3,1.7,4.8,3.3,7.2,4.8c2.5,1.5,5.1,2.9,7.7,4.2c1.3,0.6,2.7,1.2,4,1.8c1.2,0.5,2.5,1,3.7,1.5c0.4,0.2,0.9,0.3,1.3,0.5
			c0.8,0.3,1.6,0.6,2.4,0.8c0.6,0.2,1.1,0.4,1.7,0.5c0.7,0.2,1.3,0.4,2,0.6c0.7,0.2,1.3,0.4,2,0.5c0.3,0.1,0.6,0.1,0.9,0.2
			c1.9,0.4,3.7,0.8,5.6,1.1c0.2,0,0.4,0.1,0.6,0.1c1,0.2,2,0.3,3.1,0.4c0.2,0,0.5,0.1,0.7,0.1c1.1,0.1,2.2,0.2,3.3,0.3
			c2.7,0.2,5.3,0.3,8.1,0.3c1.3,0,2.6,0,3.9-0.1c2.6-0.1,5.1-0.3,7.6-0.6c1.2-0.1,2.5-0.3,3.7-0.5c4.9-0.8,9.7-1.9,14.3-3.5
			c6.9-2.3,13.4-5.4,19.5-9.3c2-1.3,4-2.7,5.9-4.2c11.8-8.9,20.8-19.8,27-32.7c2.1-4.3,3.9-8.9,5.3-13.6c0,0,0,0,0,0
			c1.6-5.9-0.8-8.9-7.2-8.9h-60c-5,0-9.1-1.6-12.4-4.9c-3.3-3.3-4.9-7.4-4.9-12.4c0-5,1.6-9.1,4.9-12.4c3.3-3.3,7.4-4.9,12.4-4.9
			h64.1c9.1,0,16.5,1.7,22.2,5.1c5.7,3.4,9.9,7.7,12.6,13c2.7,5.2,4.1,11,4.1,17.2c0,6.3-0.9,12.3-2.7,18.2
			c-4.1,12.9-9.8,24.9-17.2,35.8c-7.4,10.9-16.5,20.3-27.4,28.3c-5.2,4-10.7,7.5-16.5,10.7c-1.4,0.8-2.9,1.5-4.4,2.3
			c-4.5,2.2-9.1,4.1-13.8,5.8c-4.8,1.7-9.7,3.1-14.7,4.1c-1.7,0.3-3.3,0.7-5,0.9c-3.4,0.5-6.8,0.9-10.3,1.2
			c-2.8,0.2-5.7,0.3-8.6,0.3c-0.7,0-1.3,0-2,0h-0.3c-0.6,0-1.1,0-1.7,0c-1.6,0-3.2,0-4.7-0.1c-0.6,0-1.1-0.1-1.7-0.1c0,0,0,0,0,0
			c-5.1-0.3-10.1-0.8-15-1.7c-0.3-0.1-0.6-0.1-0.9-0.1c-1.2-0.2-2.4-0.5-3.6-0.7c-0.7-0.2-1.4-0.3-2.1-0.5c-1-0.2-2-0.5-3.1-0.8
			c-0.9-0.2-1.8-0.5-2.7-0.8c-0.9-0.3-1.7-0.5-2.6-0.8c-1.1-0.4-2.2-0.7-3.3-1.1c-0.7-0.2-1.3-0.5-2-0.7c-1.8-0.7-3.5-1.4-5.3-2.1
			c-2.4-1.1-4.8-2.2-7.1-3.4c-0.6-0.3-1.2-0.6-1.8-0.9c-2-1-4-2.1-5.9-3.3c-0.3-0.2-0.6-0.4-0.9-0.5c-0.6-0.3-1.1-0.7-1.7-1
			c-1.7-1-3.3-2.1-4.9-3.2c-0.4-0.3-0.8-0.5-1.1-0.8c-1.9-1.3-3.7-2.7-5.5-4.1c-0.2-0.2-0.5-0.3-0.7-0.5c0,0,0,0,0,0
			c-3.6-2.9-7.1-5.9-10.4-9.1c-11.6-11.6-20.6-24.9-27.1-40c-3-7-5.3-14.3-6.9-21.8c0,0,0,0,0,0.1c0-0.2-0.1-0.4-0.1-0.6
			c-0.3-1.5-0.6-3.1-0.9-4.6c-0.1-0.6-0.2-1.2-0.3-1.8c-0.2-1.6-0.4-3.2-0.6-4.8c-0.1-0.6-0.2-1.2-0.2-1.8c-0.2-1.7-0.3-3.3-0.4-5
			c0-0.6-0.1-1.1-0.1-1.7c-0.1-2.2-0.2-4.5-0.2-6.8c0-17.5,3.2-33.8,9.7-48.9c5.7-13.3,13.4-25.2,23.1-35.8c1.3-1.4,2.7-2.8,4-4.2
			c2.9-2.8,5.9-5.4,9-7.9c6.2-5,12.9-9.5,20-13.4c3.6-2,7.2-3.8,11-5.4C84,11,88.4,9.3,92.9,8C104.1,4.6,115.9,2.8,128.2,2.8
			 M128.2,0.8c-12.4,0-24.5,1.8-35.9,5.2c-4.7,1.4-9.3,3.1-13.5,5c-3.8,1.7-7.6,3.5-11.2,5.5c-7.2,3.9-14,8.5-20.3,13.6
			c-3.2,2.5-6.2,5.2-9.2,8c-1.4,1.4-2.7,2.8-4.1,4.3c-9.8,10.7-17.7,22.9-23.4,36.4c-6.6,15.3-9.9,32-9.9,49.7
			c0,2.2,0.1,4.5,0.2,6.9c0,0.3,0,0.7,0.1,1c0,0.2,0,0.5,0.1,0.7c0.1,1.4,0.2,3.3,0.4,5.1c0,0.4,0.1,0.7,0.1,1.1
			c0,0.2,0.1,0.5,0.1,0.7c0.2,1.4,0.4,3.1,0.6,4.9c0.1,0.4,0.1,0.8,0.2,1.2c0,0.2,0.1,0.4,0.1,0.7c0.3,1.9,0.6,3.3,0.9,4.7
			c0,0.1,0,0.1,0,0.2c0,0.1,0,0.3,0.1,0.4c0,0.1,0.1,0.2,0.1,0.3c1.6,7.6,4,15,6.9,21.8c6.5,15.3,15.8,29,27.5,40.7
			c3.2,3.1,6.7,6.2,10.4,9.1c0.1,0.1,0.1,0.1,0.2,0.2c0.1,0.1,0.3,0.2,0.4,0.3c0.1,0.1,0.2,0.1,0.3,0.2c1.8,1.4,3.7,2.8,5.6,4.1
			l0.4,0.3c0.2,0.2,0.5,0.3,0.7,0.5c1.6,1.1,3.3,2.2,5,3.3l0.5,0.3c0.4,0.3,0.8,0.5,1.2,0.7c0.2,0.1,0.4,0.2,0.6,0.3
			c0.1,0.1,0.3,0.1,0.4,0.2c1.9,1.1,3.9,2.2,6,3.3c0.6,0.3,1.2,0.6,1.8,0.9c2.7,1.4,5,2.5,7.2,3.4c1.7,0.7,3.4,1.4,5.4,2.2
			c0.4,0.2,0.9,0.3,1.4,0.5l0.7,0.2c1.1,0.4,2.2,0.8,3.4,1.2c0.9,0.3,1.8,0.5,2.6,0.8c1,0.3,1.9,0.5,2.7,0.8
			c1.1,0.3,2.1,0.6,3.1,0.8c0.7,0.2,1.4,0.3,2.1,0.5l0.1,0c1.1,0.2,2.4,0.5,3.7,0.8c0.2,0,0.3,0.1,0.5,0.1c0.1,0,0.2,0,0.4,0.1
			c5,0.9,10.1,1.5,15.2,1.7c0,0,0,0,0,0v0c0.2,0,0.5,0,0.7,0c0.3,0,0.7,0,1,0.1c1.6,0.1,3.2,0.1,4.8,0.1c0.6,0,1.2,0,1.7,0l0.3,0
			c0.7,0,1.3,0,2,0c2.9,0,5.9-0.1,8.7-0.3c3.5-0.2,7-0.6,10.5-1.2c1.7-0.3,3.4-0.6,5.1-0.9c5.1-1,10.1-2.5,14.9-4.2
			c4.8-1.7,9.5-3.7,14-5.9c1.5-0.7,3-1.5,4.5-2.3c5.9-3.2,11.5-6.8,16.8-10.8c11-8,20.4-17.7,27.9-28.8c7.5-11,13.3-23.2,17.5-36.3
			c1.9-6.1,2.8-12.4,2.8-18.8c0-6.5-1.5-12.6-4.3-18.1c-2.9-5.5-7.4-10.2-13.4-13.7c-6-3.6-13.8-5.4-23.2-5.4h-64.1
			c-5.5,0-10.2,1.9-13.9,5.5c-3.7,3.7-5.5,8.3-5.5,13.9c0,5.5,1.9,10.2,5.5,13.9c3.7,3.7,8.3,5.5,13.9,5.5h60c1.8,0,4.1,0.3,5,1.5
			c0.9,1.2,0.6,3.2,0.2,4.8c-1.4,4.6-3.2,9.1-5.2,13.3c-6.1,12.6-15,23.4-26.4,32c-1.9,1.4-3.8,2.8-5.8,4.1
			c-5.9,3.8-12.3,6.8-19,9.1c-4.5,1.5-9.2,2.6-13.9,3.4c-1.2,0.2-2.4,0.4-3.6,0.5c-2.4,0.3-4.9,0.5-7.4,0.6c-1.3,0-2.5,0.1-3.8,0.1
			c-2.5,0-5.1-0.1-7.9-0.3c-1-0.1-2-0.2-3.2-0.3c-0.2,0-0.4-0.1-0.7-0.1c-1.1-0.1-2.1-0.3-3-0.4c-0.1,0-0.2,0-0.3-0.1l-0.3-0.1
			c-1.8-0.3-3.7-0.7-5.5-1.1c-0.1,0-0.3-0.1-0.4-0.1c-0.1,0-0.3-0.1-0.4-0.1c-0.5-0.1-1-0.3-1.5-0.4l-0.5-0.1
			c-0.7-0.2-1.3-0.4-2-0.5c-0.6-0.2-1.1-0.3-1.7-0.5c-0.8-0.2-1.6-0.5-2.3-0.8l-0.4-0.1c-0.3-0.1-0.6-0.2-1-0.3
			c-1.4-0.5-2.6-1-3.6-1.4c-1.3-0.6-2.7-1.2-4-1.8c-2.6-1.2-5.1-2.6-7.5-4.1c-2.4-1.5-4.8-3-7.1-4.7c-1.2-0.9-2.3-1.8-3.6-2.8
			c-2.2-1.8-4.2-3.6-6.2-5.5c-7.7-8.2-14-17.7-18.7-28.2l0-0.1c-0.6-1.4-1.2-2.8-1.7-4.3c-0.1-0.2-0.1-0.4-0.2-0.5
			c-0.1-0.2-0.1-0.3-0.2-0.5c-0.5-1.3-0.8-2.4-1.1-3.5c-2.5-8.1-3.7-16.8-3.7-25.9c0-12.4,2.4-24.1,7-34.8c1.5-3.4,3.2-6.9,5.2-10.3
			c1.8-3.2,3.9-6.3,6.1-9.2c0.1-0.1,0.2-0.2,0.2-0.3l0.2-0.3c0.8-1.1,1.7-2.2,2.7-3.4l0.3-0.3c0.2-0.2,0.3-0.4,0.5-0.6
			c1.2-1.4,2.3-2.6,3.4-3.7c0,0,0,0,0,0c3.1-3,6.3-5.8,9.7-8.3c2.3-1.7,4.7-3.3,7.1-4.8c2.4-1.5,5-2.9,7.6-4.1
			c1.3-0.6,2.6-1.2,4-1.8c1.3-0.6,2.7-1.1,4-1.6c9.5-3.6,19.8-5.4,30.6-5.4c3.8,0,7.8,0.3,11.7,0.8c0.5,0.1,0.9,0.1,1.4,0.2l0.3,0
			c3.1,0.5,6.2,1.1,9.3,1.9c0.2,0.1,0.5,0.1,0.7,0.2c0.2,0.1,0.5,0.1,0.7,0.2c0.6,0.2,1.1,0.4,1.7,0.6c0.3,0.1,0.6,0.2,1,0.3
			c5,1.6,9.6,3.5,13.9,5.6c1.8,0.9,3.5,1.8,5.3,2.8c0.5,0.3,1.1,0.6,1.7,0.9c1.7,0.9,3.5,1.4,5.3,1.7c0.6,0.1,1.2,0.2,1.8,0.2
			c0.3,0,0.6,0,0.9,0c1.5,0,3.1-0.2,4.7-0.6c1.3-0.3,2.5-0.7,3.6-1.3c3.4-1.6,6.1-4.3,8.2-7.8c0.1-0.2,0.2-0.4,0.4-0.7l0.1-0.2
			c2.3-4.3,2.9-8.8,1.6-13.4c-1.4-4.9-4.3-8.9-8.8-11.9c0,0-0.1,0-0.1-0.1c-1.2-0.7-2.4-1.4-3.7-2.1c-2.5-1.4-5-2.6-7.5-3.8
			c-2-1-4.2-1.9-6.6-2.9c-0.2-0.1-0.3-0.1-0.5-0.2c-0.2-0.1-0.4-0.2-0.7-0.3c-3.9-1.6-8-3-12.2-4.2c-3.1-0.9-6.4-1.7-9.8-2.4
			c-2.2-0.4-4.4-0.8-6.4-1.1c-0.4-0.1-0.8-0.1-1.2-0.2c-4.1-0.6-8.3-0.9-12.5-1.1C131.2,0.8,129.7,0.8,128.2,0.8L128.2,0.8z"/>
	</g>
	<path class="st1" d="M128.2,254c-17.3,0.2-33.5-2.9-48.6-9.5c-15.1-6.6-28.5-15.6-40-26.9c-11.6-11.6-20.6-24.9-27.1-40
		c-6.5-15.1-9.7-31.4-9.7-48.9c0-17.5,3.2-33.8,9.7-48.9C19,64.6,28,51.2,39.6,39.6c11.6-11.1,24.9-20,40-26.8
		c15.1-6.7,31.3-10.1,48.6-10.1c11.6,0,22.8,1.6,33.7,4.8c10.9,3.2,21.1,7.6,30.7,13.3c4.1,2.7,6.8,6.3,8,10.7
		c1.2,4.4,0.6,8.7-1.9,12.8c-2.5,4.3-6,7-10.6,8.2c-4.5,1.1-8.9,0.5-13-2c-7-4.1-14.5-7.3-22.3-9.5c-7.8-2.3-16.1-3.4-24.7-3.4
		c-12.7,0-24.5,2.4-35.4,7.2c-10.9,4.8-20.6,11.2-29,19.4c-8,8.2-14.3,17.8-19.1,28.8c-4.8,11-7.2,22.9-7.2,35.6
		c0,13,2.4,24.8,7.2,35.6c4.8,10.8,11.1,20.4,19.1,28.8c8.4,8.2,18.1,14.6,29,19.3c10.9,4.7,22.7,7,35.4,7c10.4,0,20.3-1.5,29.5-4.6
		c9.2-3.1,17.7-7.6,25.4-13.5c15.7-11.8,26.5-27.3,32.4-46.3c1.6-5.9-0.8-8.9-7.2-8.9h-60c-5,0-9.1-1.6-12.4-4.9
		c-3.3-3.3-4.9-7.4-4.9-12.4c0-5,1.6-9.1,4.9-12.4c3.3-3.3,7.4-4.9,12.4-4.9h64.1c9.1,0,16.5,1.7,22.2,5.1c5.7,3.4,9.9,7.7,12.6,13
		c2.7,5.2,4.1,11,4.1,17.2c0,6.3-0.9,12.3-2.7,18.2c-4.1,12.9-9.8,24.9-17.2,35.8c-7.4,10.9-16.5,20.3-27.4,28.3
		c-10.5,8-22,14.2-34.8,18.7c-12.7,4.5-26.2,6.7-40.6,6.5H128.2z"/>
	<path class="st1" d="M120.1,218.9c-9.7-0.8-18.8-3-27.4-6.6c-10.9-4.7-20.6-11.1-29-19.3c-8-8.4-14.3-18-19.1-28.8
		c-4.8-10.8-7.2-22.7-7.2-35.6c0-12.7,2.4-24.6,7.2-35.6c4.8-11,11.1-20.6,19.1-28.8c8.4-8.2,18.1-14.7,29-19.4
		c10.9-4.8,22.7-7.2,35.4-7.2c8.6,0,16.9,1.1,24.7,3.4c7.8,2.3,15.3,5.5,22.3,9.5c4.1,2.5,8.4,3.2,13,2c4.5-1.1,8.1-3.9,10.6-8.2
		c2.5-4.1,3.1-8.3,1.9-12.8c-1.3-4.4-3.9-8-8-10.7c-9.5-5.7-19.8-10.1-30.7-13.3c-10.9-3.2-22.2-4.8-33.7-4.8
		c-17.3,0-33.5,3.4-48.6,10.1c-15.1,6.7-28.5,15.6-40,26.8C28,51.2,19,64.6,12.5,79.7C6,94.8,2.8,111.1,2.8,128.6
		c0,17.5,3.2,33.8,9.7,48.9c6.5,15.1,15.5,28.5,27.1,40c11.6,11.4,24.9,20.3,40,26.9c12.7,5.6,26.2,8.6,40.5,9.4V218.9z"/>
	<path class="st0" d="M12.2,133.4c5.9-15.4,15-29.2,27.2-41.4c3.4-3.4,6.9-6.5,10.6-9.4c3.9-6.7,8.5-12.9,13.8-18.3
		c8.4-8.2,18.1-14.7,29-19.4c10.9-4.8,22.7-7.2,35.4-7.2c8.6,0,16.9,1.1,24.7,3.4c7.8,2.3,15.3,5.5,22.3,9.5c4.1,2.5,8.4,3.2,13,2
		c4.5-1.1,8.1-3.9,10.6-8.2c2.5-4.1,3.1-8.3,1.9-12.8c-1.3-4.4-3.9-8-8-10.7c-9.5-5.7-19.8-10.1-30.7-13.3
		c-10.9-3.2-22.2-4.8-33.7-4.8c-17.3,0-33.5,3.4-48.6,10.1c-15.1,6.7-28.5,15.6-40,26.8C28,51.2,19,64.6,12.5,79.7
		C6,94.8,2.8,111.1,2.8,128.6c0,9.4,0.9,18.4,2.8,27.1C7.2,148.2,9.4,140.7,12.2,133.4z"/>
	<path class="st0" d="M218.5,193.4c1.9-13.4,0.9-26.4-2.9-38.9c0,0.1-0.1,0.2-0.1,0.4c-5.9,19.1-16.7,34.5-32.4,46.3
		c-7.7,5.9-16.2,10.4-25.4,13.5c-9.2,3.1-19,4.6-29.5,4.6c-12.7,0-24.5-2.3-35.4-7c-10.9-4.7-20.6-11.1-29-19.3
		c-8-8.4-14.3-18-19.1-28.8c-1.4-3.1-2.5-6.2-3.5-9.5c-2.5,8.5-3.9,17.2-4,26.1c0.2,11.4,2.5,22.7,6.9,33.9c1.6,4.2,3.6,8.2,5.9,12
		c9,7.1,18.9,13,29.6,17.7c15.1,6.6,31.3,9.8,48.6,9.5h0.3c14.3,0.2,27.8-1.9,40.6-6.5c12.7-4.5,24.3-10.8,34.8-18.7
		c1.1-0.8,2.1-1.6,3.1-2.4c1.1-1.8,2.1-3.7,3.1-5.6C214.4,212.2,217.2,203,218.5,193.4z"/>
</g>
</svg>
